<?xml version="1.0" encoding="utf-8"?>
<!-- Generator: Adobe Illustrator 24.2.3, SVG Export Plug-In . SVG Version: 6.00 Build 0)  -->
<svg version="1.1" id="Layer_1" xmlns="http://www.w3.org/2000/svg" xmlns:xlink="http://www.w3.org/1999/xlink" x="0px" y="0px"
	 viewBox="0 0 755.8 532.1" style="enable-background:new 0 0 755.8 532.1;" xml:space="preserve">
<style type="text/css">
	.st0{fill:#1F1F1F;}
</style>
<path class="st0" d="M389.5,532.1h-23c-7.4-0.3-14.8-0.8-22.3-0.9c-43.7-1.1-87.4-1.8-131.1-3.2c-39.9-1.3-79.8-3.1-119.1-10
	c-37.8-6.6-63.5-28.2-75.9-64.6C10.6,431.8,7.9,409,6.4,386.4c-2.6-38.6-3.8-77.3-5.6-116c-0.2-1.6-0.4-3.2-0.8-4.8v-10
	c0.2-1.8,0.6-3.6,0.7-5.4c1.2-26.6,1.9-53.2,3.6-79.7c1.7-27.7,4.5-55.4,10.9-82.4c9.2-38.5,33-63.7,71.5-73.1
	c17.5-4.3,35.7-6.2,53.7-7.5C175,5,209.8,3,244.5,2.1c53.9-1.3,107.8-2.5,161.6-2c59.5,0.6,119.1,2.7,178.6,5.2
	c26.4,1.2,52.7,3.9,78.8,8.1c34.6,5.4,59.5,25.2,72.6,57.7c5.5,13.7,8.3,28.7,10.5,43.4c6.8,45.1,9,90.7,9.1,136.2
	c0.1,30.9-0.7,61.9-2.2,92.8c-1.5,31.5-4.5,63-10.7,94c-8.6,43.3-33.8,71.2-77.3,79.7c-25.5,5-51.8,7.3-77.8,8.4
	c-64.2,2.7-128.4,3.9-192.6,5.7C393.4,531.5,391.4,531.8,389.5,532.1z M301.5,153.4v224.5L499,265.6L301.5,153.4z"/>
</svg>
